<svg width="360" height="540" viewBox="0 0 360 540" fill="none" xmlns="http://www.w3.org/2000/svg">
<path d="M330.487 2.2124H31.3755C14.8376 2.2124 1.43103 15.6191 1.43103 32.157V511.268C1.43103 527.806 14.8376 541.212 31.3755 541.212H330.487C347.024 541.212 360.431 527.806 360.431 511.268V32.157C360.431 15.6191 347.024 2.2124 330.487 2.2124Z" fill="white" stroke="black" stroke-width="2.5"/>
<path fill-rule="evenodd" clip-rule="evenodd" d="M260.598 103.553V19.5081H180.623V103.553H260.598Z" fill="white"/>
<path fill-rule="evenodd" clip-rule="evenodd" d="M340.529 103.553V19.5081H260.598V103.553H340.529V103.553Z" fill="#190C80"/>
<path fill-rule="evenodd" clip-rule="evenodd" d="M340.529 187.598V103.553H260.598V187.598H340.529V187.598Z" fill="white"/>
<path fill-rule="evenodd" clip-rule="evenodd" d="M260.598 187.598V103.553H180.623V187.598H260.598Z" fill="#190C80"/>
<path fill-rule="evenodd" clip-rule="evenodd" d="M100.69 271.64V187.598H20.7583V271.64H100.69Z" fill="white"/>
<path fill-rule="evenodd" clip-rule="evenodd" d="M180.623 271.64V187.598H100.689V271.64H180.623Z" fill="#190C80"/>
<path fill-rule="evenodd" clip-rule="evenodd" d="M260.598 271.64V187.598H180.623V271.64H260.598Z" fill="white"/>
<path fill-rule="evenodd" clip-rule="evenodd" d="M340.529 271.64V187.598H260.598V271.64H340.529V271.64Z" fill="#190C80"/>
<path fill-rule="evenodd" clip-rule="evenodd" d="M180.623 187.598V103.553H100.689V187.598H180.623Z" fill="white"/>
<path fill-rule="evenodd" clip-rule="evenodd" d="M100.69 187.598V103.553H20.7583V187.598H100.69Z" fill="#190C80"/>
<path fill-rule="evenodd" clip-rule="evenodd" d="M100.69 103.553V19.5081H20.7583V103.553H100.69Z" fill="white"/>
<path fill-rule="evenodd" clip-rule="evenodd" d="M180.623 103.553V19.5081H100.689V103.553H180.623Z" fill="#190C80"/>
<path fill-rule="evenodd" clip-rule="evenodd" d="M180.623 523.819V439.752H100.689V523.819H180.623Z" fill="white"/>
<path fill-rule="evenodd" clip-rule="evenodd" d="M100.69 523.819V439.752H20.7583V523.819H100.69Z" fill="#190C80"/>
<path fill-rule="evenodd" clip-rule="evenodd" d="M100.69 439.752V355.707H20.7583V439.752H100.69Z" fill="white"/>
<path fill-rule="evenodd" clip-rule="evenodd" d="M180.623 439.752V355.707H100.689V439.752H180.623Z" fill="#190C80"/>
<path fill-rule="evenodd" clip-rule="evenodd" d="M340.529 355.707V271.641H260.598V355.707H340.529V355.707Z" fill="white"/>
<path fill-rule="evenodd" clip-rule="evenodd" d="M260.598 355.707V271.641H180.623V355.707H260.598Z" fill="#190C80"/>
<path fill-rule="evenodd" clip-rule="evenodd" d="M180.623 355.707V271.641H100.689V355.707H180.623Z" fill="white"/>
<path fill-rule="evenodd" clip-rule="evenodd" d="M100.69 355.707V271.641H20.7583V355.707H100.69Z" fill="#190C80"/>
<path fill-rule="evenodd" clip-rule="evenodd" d="M260.598 439.752V355.707H180.623V439.752H260.598Z" fill="white"/>
<path fill-rule="evenodd" clip-rule="evenodd" d="M340.529 439.752V355.707H260.598V439.752H340.529V439.752Z" fill="#190C80"/>
<path fill-rule="evenodd" clip-rule="evenodd" d="M340.529 523.819V439.752H260.598V523.819H340.529V523.819Z" fill="white"/>
<path fill-rule="evenodd" clip-rule="evenodd" d="M260.598 523.819V439.752H180.623V523.819H260.598Z" fill="#190C80"/>
<path fill-rule="evenodd" clip-rule="evenodd" d="M250.592 19.5081L260.598 29.9818L190.627 103.553L180.623 93.033L250.592 19.5081V19.5081Z" fill="#190C80"/>
<path fill-rule="evenodd" clip-rule="evenodd" d="M330.525 19.5081L340.529 29.9818L270.605 103.553L260.598 93.033L330.525 19.5081" fill="white"/>
<path fill-rule="evenodd" clip-rule="evenodd" d="M270.605 103.553L260.598 114.073L330.525 187.598L340.529 177.076L270.605 103.553Z" fill="#190C80"/>
<path fill-rule="evenodd" clip-rule="evenodd" d="M190.627 103.553L180.623 114.073L250.592 187.598L260.598 177.076L190.627 103.553Z" fill="white"/>
<path fill-rule="evenodd" clip-rule="evenodd" d="M90.686 187.598L100.69 198.092L30.7418 271.64L20.7583 261.168L90.686 187.598V187.598Z" fill="#190C80"/>
<path fill-rule="evenodd" clip-rule="evenodd" d="M170.661 187.598L180.623 198.092L110.695 271.64L100.689 261.168L170.661 187.598" fill="white"/>
<path fill-rule="evenodd" clip-rule="evenodd" d="M250.592 187.598L260.598 198.092L190.627 271.64L180.623 261.168L250.592 187.598Z" fill="#190C80"/>
<path fill-rule="evenodd" clip-rule="evenodd" d="M330.525 187.598L340.529 198.092L270.605 271.64L260.598 261.168L330.525 187.598Z" fill="white"/>
<path fill-rule="evenodd" clip-rule="evenodd" d="M110.695 103.553L100.689 114.073L170.661 187.598L180.623 177.076L110.695 103.553V103.553Z" fill="#190C80"/>
<path fill-rule="evenodd" clip-rule="evenodd" d="M30.7418 103.553L20.7583 114.073L90.686 187.598L100.69 177.076L30.7418 103.553Z" fill="white"/>
<path fill-rule="evenodd" clip-rule="evenodd" d="M90.686 19.5081L100.69 29.9818L30.7418 103.553L20.7583 93.033L90.686 19.5081V19.5081Z" fill="#190C80"/>
<path fill-rule="evenodd" clip-rule="evenodd" d="M170.661 19.5081L180.623 29.9818L110.695 103.553L100.689 93.033L170.661 19.5081" fill="white"/>
<path fill-rule="evenodd" clip-rule="evenodd" d="M110.695 523.819L100.689 513.298L170.661 439.752L180.623 450.271L110.695 523.819V523.819Z" fill="#190C80"/>
<path fill-rule="evenodd" clip-rule="evenodd" d="M30.7418 523.819L20.7583 513.298L90.686 439.752L100.69 450.271L30.7418 523.819Z" fill="white"/>
<path fill-rule="evenodd" clip-rule="evenodd" d="M90.686 439.752L100.69 429.231L30.7418 355.707L20.7583 366.228L90.686 439.752V439.752Z" fill="#190C80"/>
<path fill-rule="evenodd" clip-rule="evenodd" d="M170.661 439.752L180.623 429.231L110.695 355.707L100.689 366.228L170.661 439.752" fill="white"/>
<path fill-rule="evenodd" clip-rule="evenodd" d="M270.605 355.707L260.598 345.21L330.525 271.641L340.529 282.161L270.605 355.707Z" fill="#190C80"/>
<path fill-rule="evenodd" clip-rule="evenodd" d="M190.627 355.707L180.623 345.21L250.592 271.641L260.598 282.161L190.627 355.707Z" fill="white"/>
<path fill-rule="evenodd" clip-rule="evenodd" d="M110.695 355.707L100.689 345.21L170.661 271.641L180.623 282.161L110.695 355.707V355.707Z" fill="#190C80"/>
<path fill-rule="evenodd" clip-rule="evenodd" d="M30.7418 355.707L20.7583 345.21L90.686 271.641L100.69 282.161L30.7418 355.707Z" fill="white"/>
<path fill-rule="evenodd" clip-rule="evenodd" d="M250.592 439.752L260.598 429.231L190.627 355.707L180.623 366.228L250.592 439.752V439.752Z" fill="#190C80"/>
<path fill-rule="evenodd" clip-rule="evenodd" d="M330.525 439.752L340.529 429.231L270.605 355.707L260.598 366.228L330.525 439.752" fill="white"/>
<path fill-rule="evenodd" clip-rule="evenodd" d="M270.605 523.819L260.598 513.298L330.525 439.752L340.529 450.271L270.605 523.819Z" fill="#190C80"/>
<path fill-rule="evenodd" clip-rule="evenodd" d="M190.627 523.819L180.623 513.298L250.592 439.752L260.598 450.271L190.627 523.819Z" fill="white"/>
<path fill-rule="evenodd" clip-rule="evenodd" d="M190.627 19.5081L180.623 29.9818L250.592 103.553L260.598 93.033L190.627 19.5081V19.5081Z" fill="#190C80"/>
<path fill-rule="evenodd" clip-rule="evenodd" d="M220.599 19.5081L180.623 61.5415L220.599 103.553L260.598 61.5415L220.599 19.5081Z" fill="#190C80"/>
<path fill-rule="evenodd" clip-rule="evenodd" d="M270.605 19.5081L260.598 29.9818L330.525 103.553L340.529 93.033L270.605 19.5081" fill="white"/>
<path fill-rule="evenodd" clip-rule="evenodd" d="M300.532 19.5081L260.598 61.5415L300.532 103.553L340.529 61.5415L300.532 19.5081Z" fill="white"/>
<path fill-rule="evenodd" clip-rule="evenodd" d="M330.525 103.553L340.529 114.073L270.605 187.598L260.598 177.076L330.525 103.553Z" fill="#190C80"/>
<path fill-rule="evenodd" clip-rule="evenodd" d="M300.532 103.553L340.529 145.586L300.532 187.598L260.598 145.586L300.532 103.553Z" fill="#190C80"/>
<path fill-rule="evenodd" clip-rule="evenodd" d="M250.592 103.553L260.598 114.073L190.627 187.598L180.623 177.076L250.592 103.553Z" fill="white"/>
<path fill-rule="evenodd" clip-rule="evenodd" d="M220.599 103.553L260.598 145.586L220.599 187.598L180.623 145.586L220.599 103.553Z" fill="white"/>
<path fill-rule="evenodd" clip-rule="evenodd" d="M30.7418 187.598L20.7583 198.092L90.686 271.64L100.69 261.168L30.7418 187.598Z" fill="#190C80"/>
<path fill-rule="evenodd" clip-rule="evenodd" d="M60.7576 187.598L20.7583 229.629L60.7576 271.64L100.69 229.629L60.7576 187.598Z" fill="#190C80"/>
<path fill-rule="evenodd" clip-rule="evenodd" d="M110.695 187.598L100.689 198.092L170.661 271.64L180.623 261.168L110.695 187.598" fill="white"/>
<path fill-rule="evenodd" clip-rule="evenodd" d="M140.69 187.598L100.689 229.629L140.69 271.64L180.623 229.629L140.69 187.598Z" fill="white"/>
<path fill-rule="evenodd" clip-rule="evenodd" d="M190.627 187.598L180.623 198.092L250.592 271.64L260.598 261.168L190.627 187.598Z" fill="#190C80"/>
<path fill-rule="evenodd" clip-rule="evenodd" d="M220.599 187.598L180.623 229.629L220.599 271.64L260.598 229.629L220.599 187.598Z" fill="#190C80"/>
<path fill-rule="evenodd" clip-rule="evenodd" d="M270.605 187.598L260.598 198.092L330.525 271.64L340.529 261.168L270.605 187.598Z" fill="white"/>
<path fill-rule="evenodd" clip-rule="evenodd" d="M300.532 187.598L260.598 229.629L300.532 271.64L340.529 229.629L300.532 187.598Z" fill="white"/>
<path fill-rule="evenodd" clip-rule="evenodd" d="M170.661 103.553L180.623 114.073L110.695 187.598L100.689 177.076L170.661 103.553V103.553Z" fill="#190C80"/>
<path fill-rule="evenodd" clip-rule="evenodd" d="M140.69 103.553L180.623 145.586L140.69 187.598L100.689 145.586L140.69 103.553Z" fill="#190C80"/>
<path fill-rule="evenodd" clip-rule="evenodd" d="M90.686 103.553L100.69 114.073L30.7418 187.598L20.7583 177.076L90.686 103.553" fill="white"/>
<path fill-rule="evenodd" clip-rule="evenodd" d="M60.7576 103.553L100.69 145.586L60.7576 187.598L20.7583 145.586L60.7576 103.553Z" fill="white"/>
<path fill-rule="evenodd" clip-rule="evenodd" d="M30.7418 19.5081L20.7583 29.9818L90.686 103.553L100.69 93.033L30.7418 19.5081V19.5081Z" fill="#190C80"/>
<path fill-rule="evenodd" clip-rule="evenodd" d="M60.7576 19.5081L20.7583 61.5415L60.7576 103.553L100.69 61.5415L60.7576 19.5081Z" fill="#190C80"/>
<path fill-rule="evenodd" clip-rule="evenodd" d="M110.695 19.5081L100.689 29.9818L170.661 103.553L180.623 93.033L110.695 19.5081" fill="white"/>
<path fill-rule="evenodd" clip-rule="evenodd" d="M140.69 19.5081L100.689 61.5415L140.69 103.553L180.623 61.5415L140.69 19.5081Z" fill="white"/>
<path fill-rule="evenodd" clip-rule="evenodd" d="M170.661 523.819L180.623 513.298L110.695 439.752L100.689 450.271L170.661 523.819V523.819Z" fill="#190C80"/>
<path fill-rule="evenodd" clip-rule="evenodd" d="M140.69 523.819L180.623 481.761L140.69 439.752L100.689 481.761L140.69 523.819Z" fill="#190C80"/>
<path fill-rule="evenodd" clip-rule="evenodd" d="M90.686 523.819L100.69 513.298L30.7418 439.752L20.7583 450.271L90.686 523.819" fill="white"/>
<path fill-rule="evenodd" clip-rule="evenodd" d="M60.7576 523.819L100.69 481.761L60.7576 439.752L20.7583 481.761L60.7576 523.819Z" fill="white"/>
<path fill-rule="evenodd" clip-rule="evenodd" d="M60.7576 439.752L20.7583 397.741L60.7576 355.707L100.69 397.741L60.7576 439.752Z" fill="#190C80"/>
<path fill-rule="evenodd" clip-rule="evenodd" d="M110.695 439.752L100.689 429.231L170.661 355.707L180.623 366.228L110.695 439.752" fill="white"/>
<path fill-rule="evenodd" clip-rule="evenodd" d="M140.69 439.752L100.689 397.741L140.69 355.707L180.623 397.741L140.69 439.752Z" fill="white"/>
<path fill-rule="evenodd" clip-rule="evenodd" d="M330.525 355.707L340.529 345.21L270.605 271.641L260.598 282.161L330.525 355.707Z" fill="#190C80"/>
<path fill-rule="evenodd" clip-rule="evenodd" d="M300.532 355.707L340.529 313.674L300.532 271.641L260.598 313.674L300.532 355.707Z" fill="#190C80"/>
<path fill-rule="evenodd" clip-rule="evenodd" d="M250.592 355.707L260.598 345.21L190.627 271.641L180.623 282.161L250.592 355.707Z" fill="white"/>
<path fill-rule="evenodd" clip-rule="evenodd" d="M220.599 355.707L260.598 313.674L220.599 271.641L180.623 313.674L220.599 355.707Z" fill="white"/>
<path fill-rule="evenodd" clip-rule="evenodd" d="M170.661 355.707L180.623 345.21L110.695 271.641L100.689 282.161L170.661 355.707V355.707Z" fill="#190C80"/>
<path fill-rule="evenodd" clip-rule="evenodd" d="M140.69 355.707L180.623 313.674L140.69 271.641L100.689 313.674L140.69 355.707Z" fill="#190C80"/>
<path fill-rule="evenodd" clip-rule="evenodd" d="M90.686 355.707L100.69 345.21L30.7418 271.641L20.7583 282.161L90.686 355.707" fill="white"/>
<path fill-rule="evenodd" clip-rule="evenodd" d="M60.7576 355.707L100.69 313.674L60.7576 271.641L20.7583 313.674L60.7576 355.707Z" fill="white"/>
<path fill-rule="evenodd" clip-rule="evenodd" d="M190.627 439.752L180.623 429.231L250.592 355.707L260.598 366.228L190.627 439.752V439.752Z" fill="#190C80"/>
<path fill-rule="evenodd" clip-rule="evenodd" d="M220.599 439.752L180.623 397.741L220.599 355.707L260.598 397.741L220.599 439.752Z" fill="#190C80"/>
<path fill-rule="evenodd" clip-rule="evenodd" d="M270.605 439.752L260.598 429.231L330.525 355.707L340.529 366.228L270.605 439.752" fill="white"/>
<path fill-rule="evenodd" clip-rule="evenodd" d="M300.532 439.752L260.598 397.741L300.532 355.707L340.529 397.741L300.532 439.752Z" fill="white"/>
<path fill-rule="evenodd" clip-rule="evenodd" d="M330.525 523.819L340.529 513.298L270.605 439.752L260.598 450.271L330.525 523.819Z" fill="#190C80"/>
<path fill-rule="evenodd" clip-rule="evenodd" d="M300.532 523.819L340.529 481.761L300.532 439.752L260.598 481.761L300.532 523.819Z" fill="#190C80"/>
<path fill-rule="evenodd" clip-rule="evenodd" d="M250.592 523.819L260.598 513.298L190.627 439.752L180.623 450.271L250.592 523.819Z" fill="white"/>
<path fill-rule="evenodd" clip-rule="evenodd" d="M220.599 523.819L260.598 481.761L220.599 439.752L180.623 481.761L220.599 523.819Z" fill="white"/>
<path fill-rule="evenodd" clip-rule="evenodd" d="M240.61 82.5132V39.199H200.611V82.5132H240.61V82.5132Z" fill="white"/>
<path fill-rule="evenodd" clip-rule="evenodd" d="M320.541 82.5132V39.199H280.586V82.5132H320.541Z" fill="#190C80"/>
<path fill-rule="evenodd" clip-rule="evenodd" d="M220.599 45.7622L205.614 61.5415L220.599 77.2526L235.607 61.5415L220.599 45.7622Z" fill="#190C80"/>
<path fill-rule="evenodd" clip-rule="evenodd" d="M300.532 45.7622L285.569 61.5415L300.532 77.2526L315.538 61.5415L300.532 45.7622Z" fill="white"/>
<path fill-rule="evenodd" clip-rule="evenodd" d="M320.541 166.58V123.266H280.586V166.58H320.541Z" fill="white"/>
<path fill-rule="evenodd" clip-rule="evenodd" d="M240.61 166.58V123.266H200.611V166.58H240.61V166.58Z" fill="#190C80"/>
<path fill-rule="evenodd" clip-rule="evenodd" d="M300.532 129.829L315.538 145.586L300.532 161.32L285.569 145.586L300.532 129.829Z" fill="#190C80"/>
<path fill-rule="evenodd" clip-rule="evenodd" d="M220.599 129.829L235.607 145.586L220.599 161.32L205.614 145.586L220.599 129.829Z" fill="white"/>
<path fill-rule="evenodd" clip-rule="evenodd" d="M80.7025 250.647V207.31H40.7463V250.647H80.7025Z" fill="white"/>
<path fill-rule="evenodd" clip-rule="evenodd" d="M160.657 250.647V207.31H120.68V250.647H160.657Z" fill="#190C80"/>
<path fill-rule="evenodd" clip-rule="evenodd" d="M60.7576 213.85L45.7487 229.629L60.7576 245.409L75.6991 229.629L60.7576 213.85Z" fill="#190C80"/>
<path fill-rule="evenodd" clip-rule="evenodd" d="M140.69 213.85L125.682 229.629L140.69 245.409L155.654 229.629L140.69 213.85Z" fill="white"/>
<path fill-rule="evenodd" clip-rule="evenodd" d="M240.61 250.647V207.31H200.611V250.647H240.61V250.647Z" fill="white"/>
<path fill-rule="evenodd" clip-rule="evenodd" d="M320.541 250.647V207.31H280.586V250.647H320.541Z" fill="#190C80"/>
<path fill-rule="evenodd" clip-rule="evenodd" d="M220.599 213.85L205.614 229.629L220.599 245.409L235.607 229.629L220.599 213.85Z" fill="#190C80"/>
<path fill-rule="evenodd" clip-rule="evenodd" d="M300.532 213.85L285.569 229.629L300.532 245.409L315.538 229.629L300.532 213.85Z" fill="white"/>
<path fill-rule="evenodd" clip-rule="evenodd" d="M160.657 166.58V123.266H120.68V166.58H160.657Z" fill="white"/>
<path fill-rule="evenodd" clip-rule="evenodd" d="M80.7025 166.58V123.266H40.7463V166.58H80.7025Z" fill="#190C80"/>
<path fill-rule="evenodd" clip-rule="evenodd" d="M140.69 129.829L155.654 145.586L140.69 161.32L125.682 145.586L140.69 129.829Z" fill="#190C80"/>
<path fill-rule="evenodd" clip-rule="evenodd" d="M60.7576 129.829L75.6991 145.586L60.7576 161.32L45.7487 145.586L60.7576 129.829Z" fill="white"/>
<path fill-rule="evenodd" clip-rule="evenodd" d="M80.7025 82.5132V39.199H40.7463V82.5132H80.7025Z" fill="white"/>
<path fill-rule="evenodd" clip-rule="evenodd" d="M160.657 82.5132V39.199H120.68V82.5132H160.657Z" fill="#190C80"/>
<path fill-rule="evenodd" clip-rule="evenodd" d="M60.7576 45.7622L45.7487 61.5415L60.7576 77.2526L75.6991 61.5415L60.7576 45.7622Z" fill="#190C80"/>
<path fill-rule="evenodd" clip-rule="evenodd" d="M140.69 45.7622L125.682 61.5415L140.69 77.2526L155.654 61.5415L140.69 45.7622Z" fill="white"/>
<path fill-rule="evenodd" clip-rule="evenodd" d="M160.657 504.082V460.792H120.68V504.082H160.657Z" fill="white"/>
<path fill-rule="evenodd" clip-rule="evenodd" d="M80.7025 504.082V460.792H40.7463V504.082H80.7025Z" fill="#190C80"/>
<path fill-rule="evenodd" clip-rule="evenodd" d="M140.69 497.542L155.654 481.761L140.69 466.029L125.682 481.761L140.69 497.542Z" fill="#190C80"/>
<path fill-rule="evenodd" clip-rule="evenodd" d="M60.7576 497.542L75.6991 481.761L60.7576 466.029L45.7487 481.761L60.7576 497.542Z" fill="white"/>
<path fill-rule="evenodd" clip-rule="evenodd" d="M160.657 420.061V376.725H120.68V420.061H160.657Z" fill="#190C80"/>
<path fill-rule="evenodd" clip-rule="evenodd" d="M140.69 413.497L125.682 397.741L140.69 381.962L155.654 397.741L140.69 413.497Z" fill="white"/>
<path fill-rule="evenodd" clip-rule="evenodd" d="M320.541 335.994V292.636H280.586V335.994H320.541V335.994Z" fill="white"/>
<path fill-rule="evenodd" clip-rule="evenodd" d="M240.61 335.994V292.636H200.611V335.994H240.61V335.994Z" fill="#190C80"/>
<path fill-rule="evenodd" clip-rule="evenodd" d="M300.532 329.452L315.538 313.674L300.532 297.896L285.569 313.674L300.532 329.452Z" fill="#190C80"/>
<path fill-rule="evenodd" clip-rule="evenodd" d="M220.599 329.452L235.607 313.674L220.599 297.896L205.614 313.674L220.599 329.452Z" fill="white"/>
<path fill-rule="evenodd" clip-rule="evenodd" d="M160.657 335.994V292.636H120.68V335.994H160.657V335.994Z" fill="white"/>
<path fill-rule="evenodd" clip-rule="evenodd" d="M80.7025 335.994V292.636H40.7463V335.994H80.7025V335.994Z" fill="#190C80"/>
<path fill-rule="evenodd" clip-rule="evenodd" d="M140.69 329.452L155.654 313.674L140.69 297.896L125.682 313.674L140.69 329.452Z" fill="#190C80"/>
<path fill-rule="evenodd" clip-rule="evenodd" d="M60.7576 329.452L75.6991 313.674L60.7576 297.896L45.7487 313.674L60.7576 329.452Z" fill="white"/>
<path fill-rule="evenodd" clip-rule="evenodd" d="M240.61 420.061V376.725H200.611V420.061H240.61V420.061Z" fill="white"/>
<path fill-rule="evenodd" clip-rule="evenodd" d="M320.541 420.061V376.725H280.586V420.061H320.541Z" fill="#190C80"/>
<path fill-rule="evenodd" clip-rule="evenodd" d="M220.599 413.497L205.614 397.741L220.599 381.962L235.607 397.741L220.599 413.497Z" fill="#190C80"/>
<path fill-rule="evenodd" clip-rule="evenodd" d="M300.532 413.497L285.569 397.741L300.532 381.962L315.538 397.741L300.532 413.497Z" fill="white"/>
<path fill-rule="evenodd" clip-rule="evenodd" d="M320.541 504.082V460.792H280.586V504.082H320.541Z" fill="white"/>
<path fill-rule="evenodd" clip-rule="evenodd" d="M240.61 504.082V460.792H200.611V504.082H240.61V504.082Z" fill="#190C80"/>
<path fill-rule="evenodd" clip-rule="evenodd" d="M300.532 497.542L315.538 481.761L300.532 466.029L285.569 481.761L300.532 497.542Z" fill="#190C80"/>
<path fill-rule="evenodd" clip-rule="evenodd" d="M220.599 497.542L235.607 481.761L220.599 466.029L205.614 481.761L220.599 497.542Z" fill="white"/>
<path fill-rule="evenodd" clip-rule="evenodd" d="M30.7418 439.752L20.7583 429.231L90.686 355.707L100.69 366.228L30.7418 439.752V439.752Z" fill="#190C80"/>
<path fill-rule="evenodd" clip-rule="evenodd" d="M80.7025 420.061V376.725H40.7463V420.061H80.7025Z" fill="white"/>
<path fill-rule="evenodd" clip-rule="evenodd" d="M60.7576 413.497L45.7487 397.741L60.7576 381.962L75.6991 397.741L60.7576 413.497Z" fill="#190C80"/>
<path d="M331.551 5.77686H29.7371C15.9484 5.77686 4.77039 17.8814 4.77039 32.813V510.513C4.77039 525.445 15.9484 537.55 29.7371 537.55H331.551C345.339 537.55 356.517 525.445 356.517 510.513V32.813C356.517 17.8814 345.339 5.77686 331.551 5.77686Z" stroke="#1E0C7D" stroke-width="6.88232"/>
</svg>
