<svg width="71" height="71" viewBox="0 0 71 71" fill="none" xmlns="http://www.w3.org/2000/svg">
<g clip-path="url(#clip0_349_137)">
<path d="M22.1868 58.5586C34.9224 65.9114 51.2072 61.548 58.5601 48.8125C65.913 36.0771 61.5495 19.7924 48.8139 12.4396C36.0784 5.08683 19.7935 9.45032 12.4406 22.1857C5.08771 34.9211 9.45123 51.2059 22.1868 58.5586Z" fill="#2B2A29"/>
<path fill-rule="evenodd" clip-rule="evenodd" d="M30.6898 61.6813C33.9025 62.267 37.1685 62.2493 40.3103 61.6635V55.8415H30.6898V61.6813ZM45.4755 48.351L46.221 49.629C45.0318 50.5343 43.736 51.2798 42.3693 51.8478L41.6238 50.552C42.9905 50.0018 44.2863 49.2563 45.4755 48.351ZM37.7188 51.5993V53.0903C36.2633 53.2855 34.7723 53.2855 33.2813 53.108V51.617C34.7723 51.8123 36.2633 51.8123 37.7188 51.5993ZM24.779 49.6468L25.5245 48.351C26.0925 48.7948 26.7138 49.2208 27.3705 49.5935C28.0095 49.9663 28.684 50.2858 29.3585 50.5698L28.613 51.8655C27.9385 51.5815 27.2818 51.2443 26.625 50.8715C25.9683 50.4988 25.3648 50.0905 24.779 49.6468ZM10.437 44.4105L15.478 41.4995L20.2883 49.8243L15.2295 52.753C13.1173 50.268 11.5198 47.428 10.437 44.4105ZM50.5698 41.6415L51.8655 42.387C51.5815 43.0615 51.2443 43.7183 50.8715 44.375C50.4988 45.0318 50.0905 45.6353 49.6468 46.221L48.351 45.4755C48.7948 44.9075 49.2208 44.2863 49.5935 43.6295C49.9663 42.9905 50.2858 42.316 50.5698 41.6415ZM21.3533 24.779L22.649 25.5245C22.2053 26.0925 21.7793 26.7138 21.4065 27.3705C21.0338 28.0095 20.7143 28.684 20.4303 29.3585L19.1345 28.613C19.4185 27.9385 19.7558 27.2818 20.1285 26.625C20.5013 25.9683 20.9095 25.3648 21.3533 24.779ZM28.6308 19.1523L29.3763 20.448C28.0095 20.9983 26.7138 21.7438 25.5245 22.649L24.779 21.371C25.9683 20.4658 27.264 19.7203 28.6308 19.1523ZM37.7188 17.892V19.383C36.2278 19.1878 34.7368 19.1878 33.2813 19.4008V17.9098C34.7545 17.7145 36.2278 17.7145 37.7188 17.892ZM41.6415 20.4303L42.387 19.1345C43.0615 19.4185 43.7183 19.7558 44.375 20.1285C45.0318 20.5013 45.6353 20.9095 46.221 21.3533L45.4755 22.649C44.9075 22.2053 44.2863 21.7793 43.6295 21.4065C42.9905 21.0338 42.316 20.7143 41.6415 20.4303ZM51.5993 33.2813H53.0903C53.2855 34.7545 53.2855 36.2278 53.108 37.7188H51.617C51.8123 36.2455 51.8123 34.7368 51.5993 33.2813ZM17.892 33.2813H19.383C19.1878 34.7723 19.1878 36.2633 19.4008 37.7188H17.9098C17.7145 36.2633 17.7145 34.7723 17.892 33.2813ZM48.351 25.5245L49.629 24.779C50.5343 25.9683 51.2798 27.264 51.8478 28.6308L50.552 29.3763C50.0018 28.0095 49.2563 26.7138 48.351 25.5245ZM19.1523 42.3693L20.448 41.6238C20.9983 42.9905 21.7438 44.2863 22.649 45.4755L21.371 46.221C20.4658 45.0318 19.7203 43.736 19.1523 42.3693ZM60.563 26.5895C59.4803 23.572 57.8828 20.732 55.7705 18.247L50.7118 21.1758L55.522 29.5005L60.563 26.5895ZM40.3103 9.31878V15.1585H30.6898V9.33653C33.8493 8.75078 37.0975 8.73303 40.3103 9.31878ZM15.2295 18.247L20.2883 21.1758L15.478 29.5005L10.4193 26.5718C10.9518 25.0808 11.6263 23.6075 12.4428 22.1875C13.2593 20.7675 14.2 19.454 15.2295 18.247ZM55.7705 52.753C56.8 51.546 57.7408 50.2325 58.5573 48.8125C59.3738 47.3925 60.0483 45.9193 60.5808 44.4283L55.522 41.4995L50.7118 49.8243L55.7705 52.753Z" fill="#FEFEFE"/>
</g>
<defs>
<clipPath id="clip0_349_137">
<rect width="71" height="71" fill="white"/>
</clipPath>
</defs>
</svg>
